<svg width="50" height="51" viewBox="0 0 50 51" fill="none" xmlns="http://www.w3.org/2000/svg">
<path d="M38.0725 33.5797V32.0172V33.5797ZM44.6129 25.2155L43.0851 25.5429L43.0851 25.5429L44.6129 25.2155ZM44.636 25.3228L46.1638 24.9954L46.1638 24.9954L44.636 25.3228ZM44.636 28.2627L43.1082 27.9353V27.9353L44.636 28.2627ZM38.182 20.0059V18.4434V20.0059ZM36.0413 33.5797L34.5289 33.187L34.0212 35.1422H36.0413V33.5797ZM37.3309 20.0059V18.4434H35.664L35.7716 20.1067L37.3309 20.0059ZM38.0725 32.0172H37.0539V35.1422H38.0725V32.0172ZM43.0851 25.5429L43.1082 25.6503L46.1638 24.9954L46.1408 24.888L43.0851 25.5429ZM43.1082 25.6503C43.2695 26.4033 43.2695 27.1822 43.1082 27.9353L46.1638 28.5901C46.4177 27.4054 46.4177 26.1801 46.1638 24.9954L43.1082 25.6503ZM38.0725 35.1422C41.9762 35.1422 45.3452 32.4096 46.1638 28.5901L43.1082 27.9353C42.5972 30.3193 40.4971 32.0172 38.0725 32.0172V35.1422ZM38.182 21.5684C40.5428 21.5684 42.5876 23.2215 43.0851 25.5429L46.1408 24.8881C45.3356 21.1312 42.0218 18.4434 38.182 18.4434V21.5684ZM37.0539 32.0172H36.0413V35.1422H37.0539V32.0172ZM35.7716 20.1067C36.0561 24.5047 35.6367 28.9208 34.5289 33.187L37.5536 33.9724C38.745 29.3842 39.196 24.6349 38.8901 19.905L35.7716 20.1067ZM38.182 18.4434H37.3309V21.5684H38.182V18.4434Z" fill="#ED9902"/>
<path d="M15.153 7.3652L14.917 5.82063L15.153 7.3652ZM27.3664 7.36521L27.6024 5.82063L27.3664 7.36521ZM26.7371 43.9189L27.0102 45.4574L26.7371 43.9189ZM15.7822 43.9189L16.0554 42.3805L16.0554 42.3805L15.7822 43.9189ZM7.39351 36.6951L8.88652 36.2344L7.39351 36.6951ZM5.54061 16.4978L3.98867 16.3165L5.54061 16.4978ZM37.1299 17.7908L35.5779 17.9722V17.9722L37.1299 17.7908ZM35.5097 35.4515L34.0166 34.9907L34.0166 34.9907L35.5097 35.4515ZM5.61609 15.8521L7.16802 16.0334L5.61609 15.8521ZM13.5581 7.60889L13.794 9.15346L13.5581 7.60889ZM15.5029 43.8693L15.2298 45.4078H15.2298L15.5029 43.8693ZM35.2097 36.4234L36.7027 36.8842V36.8842L35.2097 36.4234ZM36.9562 16.3048L38.5081 16.1234V16.1234L36.9562 16.3048ZM28.5118 7.54022L28.2758 9.0848L28.5118 7.54022ZM36.0412 33.5798L34.5289 33.1871L36.0412 33.5798ZM37.3308 20.006L35.7716 20.1068L37.3308 20.006ZM35.4042 16.4862L35.5779 17.9722L38.6818 17.6094L38.5081 16.1234L35.4042 16.4862ZM34.0166 34.9907L33.7167 35.9627L36.7027 36.8842L37.0027 35.9123L34.0166 34.9907ZM7.09254 16.6792L7.16802 16.0334L4.06415 15.6707L3.98867 16.3165L7.09254 16.6792ZM16.0554 42.3805L15.776 42.3309L15.2298 45.4078L15.5091 45.4574L16.0554 42.3805ZM13.794 9.15346L15.389 8.90978L14.917 5.82063L13.3221 6.06431L13.794 9.15346ZM27.1304 8.90978L28.2758 9.0848L28.7478 5.99565L27.6024 5.82063L27.1304 8.90978ZM15.389 8.90978C19.2803 8.31523 23.239 8.31523 27.1304 8.90978L27.6024 5.82063C23.3982 5.17828 19.1212 5.17828 14.917 5.82063L15.389 8.90978ZM26.464 42.3805C23.0212 42.9917 19.4981 42.9917 16.0554 42.3805L15.5091 45.4574C19.3132 46.1327 23.2061 46.1327 27.0102 45.4574L26.464 42.3805ZM8.88652 36.2344C6.93545 29.9127 6.32436 23.2518 7.09254 16.6792L3.98867 16.3165C3.17005 23.3206 3.82124 30.419 5.9005 37.1559L8.88652 36.2344ZM7.16802 16.0334C7.58072 12.5024 10.2956 9.68799 13.794 9.15346L13.3221 6.06431C8.42745 6.81215 4.63961 10.747 4.06415 15.6707L7.16802 16.0334ZM5.9005 37.1559C7.22243 41.4391 10.8219 44.6252 15.2298 45.4078L15.7761 42.3309C12.5243 41.7536 9.86419 39.4021 8.88652 36.2344L5.9005 37.1559ZM33.7167 35.9627C32.6875 39.2972 29.8872 41.7728 26.464 42.3805L27.0102 45.4574C31.5897 44.6444 35.3293 41.3342 36.7027 36.8842L33.7167 35.9627ZM38.5081 16.1234C37.9014 10.9324 33.9079 6.78405 28.7478 5.99565L28.2758 9.0848C32.0398 9.65988 34.9603 12.6878 35.4042 16.4862L38.5081 16.1234ZM34.5289 33.1871C34.3719 33.7915 34.2012 34.3929 34.0166 34.9907L37.0027 35.9123C37.2011 35.2693 37.3848 34.6225 37.5536 33.9725L34.5289 33.1871ZM35.5779 17.9722C35.661 18.6828 35.7255 19.3946 35.7716 20.1068L38.8901 19.9051C38.8405 19.1391 38.7711 18.3736 38.6818 17.6094L35.5779 17.9722ZM35.7716 20.1068C36.056 24.5049 35.6366 28.921 34.5289 33.1871L37.5536 33.9725C38.745 29.3844 39.196 24.635 38.8901 19.9051L35.7716 20.1068Z" fill="white"/>
<path d="M12.5 24.6097V26.2012C12.5 29.2648 13.2133 32.2862 14.5833 35.0263" stroke="#ED9902" stroke-width="3.125" stroke-linecap="round"/>
</svg>
