<svg width="50" height="51" viewBox="0 0 50 51" fill="none" xmlns="http://www.w3.org/2000/svg">
<path d="M4.16667 36.1114L4.16667 27.8213L4.21745 27.0637C4.87091 17.315 11.8166 9.21796 21.1789 7.29075C23.7011 6.77157 26.299 6.77157 28.8211 7.29074C38.1834 9.21796 45.1291 17.315 45.7826 27.0637L45.8333 27.8213V36.1114M32.4783 37.7371C32.1257 35.8811 32.1257 33.973 32.4783 32.117C33.045 29.1339 35.2043 26.731 38.0621 25.9034L38.6682 25.7278C39.2983 25.5454 39.95 25.4528 40.6048 25.4528C43.4924 25.4528 45.8333 27.8481 45.8333 30.8027V39.0514C45.8333 42.0061 43.4924 44.4014 40.6048 44.4014C39.95 44.4014 39.2983 44.3088 38.6682 44.1263L38.0621 43.9508C35.2043 43.1231 33.045 40.7203 32.4783 37.7371ZM17.5217 37.7371C17.8743 35.8811 17.8743 33.973 17.5217 32.117C16.9549 29.1339 14.7957 26.731 11.9379 25.9034L11.3318 25.7278C10.7017 25.5454 10.05 25.4528 9.39518 25.4528C6.50755 25.4528 4.16666 27.8481 4.16668 30.8027L4.16668 39.0514C4.16666 42.0061 6.50755 44.4014 9.39517 44.4014C10.05 44.4014 10.7017 44.3088 11.3318 44.1263L11.9379 43.9508C14.7957 43.1231 16.9549 40.7203 17.5217 37.7371Z" stroke="white" stroke-width="3.125"/>
<path d="M45.8333 39.0514C45.8333 42.0061 43.4924 44.4013 40.6048 44.4013C39.95 44.4013 39.2983 44.3088 38.6682 44.1263L38.0621 43.9507C35.2043 43.1231 33.045 40.7202 32.4783 37.7371C32.1257 35.8811 32.1257 33.973 32.4783 32.117C33.045 29.1339 35.2043 26.731 38.0621 25.9034L38.6682 25.7278C39.2983 25.5453 39.95 25.4528 40.6048 25.4528C43.4924 25.4528 45.8333 27.848 45.8333 30.8027V39.0514Z" stroke="#ED9902" stroke-width="3.125"/>
<path d="M4.16668 39.0514C4.16666 42.0061 6.50755 44.4013 9.39517 44.4013C10.05 44.4013 10.7017 44.3088 11.3318 44.1263L11.9379 43.9507C14.7957 43.1231 16.9549 40.7202 17.5217 37.7371C17.8743 35.8811 17.8743 33.973 17.5217 32.117C16.9549 29.1339 14.7957 26.731 11.9379 25.9033L11.3318 25.7278C10.7017 25.5453 10.05 25.4528 9.39518 25.4528C6.50755 25.4528 4.16666 27.848 4.16668 30.8027L4.16668 39.0514Z" stroke="#ED9902" stroke-width="3.125"/>
</svg>
