<svg width="50" height="51" viewBox="0 0 50 51" fill="none" xmlns="http://www.w3.org/2000/svg">
<path d="M6.86877 11.5551C7.3384 9.55302 8.90165 7.98977 10.9037 7.52014V7.52014C12.6388 7.11315 14.4445 7.11315 16.1796 7.52014V7.52014C18.1817 7.98977 19.7449 9.55302 20.2146 11.5551V11.5551C20.6216 13.2902 20.6216 15.0959 20.2146 16.831V16.831C19.7449 18.833 18.1817 20.3963 16.1796 20.8659V20.8659C14.4445 21.2729 12.6388 21.2729 10.9037 20.8659V20.8659C8.90166 20.3963 7.3384 18.8331 6.86877 16.831V16.831C6.46178 15.0959 6.46178 13.2902 6.86877 11.5551V11.5551Z" stroke="white" stroke-width="3.125"/>
<path d="M6.86877 34.4718C7.3384 32.4697 8.90165 30.9065 10.9037 30.4368V30.4368C12.6388 30.0298 14.4445 30.0298 16.1796 30.4368V30.4368C18.1817 30.9065 19.7449 32.4697 20.2146 34.4718V34.4718C20.6216 36.2069 20.6216 38.0126 20.2146 39.7476V39.7476C19.7449 41.7497 18.1817 43.313 16.1796 43.7826V43.7826C14.4445 44.1896 12.6388 44.1896 10.9037 43.7826V43.7826C8.90166 43.313 7.3384 41.7497 6.86877 39.7476V39.7476C6.46178 38.0126 6.46178 36.2069 6.86877 34.4718V34.4718Z" stroke="#ED9902" stroke-width="3.125"/>
<path d="M29.7854 11.5551C30.2551 9.55302 31.8183 7.98977 33.8204 7.52014V7.52014C35.5555 7.11315 37.3612 7.11315 39.0962 7.52014V7.52014C41.0983 7.98977 42.6616 9.55302 43.1312 11.5551V11.5551C43.5382 13.2902 43.5382 15.0959 43.1312 16.831V16.831C42.6616 18.833 41.0983 20.3963 39.0962 20.8659V20.8659C37.3612 21.2729 35.5555 21.2729 33.8204 20.8659V20.8659C31.8183 20.3963 30.2551 18.8331 29.7854 16.831V16.831C29.3784 15.0959 29.3784 13.2902 29.7854 11.5551V11.5551Z" stroke="white" stroke-width="3.125"/>
<path d="M29.7854 34.4718C30.2551 32.4697 31.8183 30.9065 33.8204 30.4368V30.4368C35.5555 30.0298 37.3612 30.0298 39.0962 30.4368V30.4368C41.0983 30.9065 42.6616 32.4697 43.1312 34.4718V34.4718C43.5382 36.2069 43.5382 38.0126 43.1312 39.7476V39.7476C42.6616 41.7497 41.0983 43.313 39.0962 43.7826V43.7826C37.3612 44.1896 35.5555 44.1896 33.8204 43.7826V43.7826C31.8183 43.313 30.2551 41.7497 29.7854 39.7476V39.7476C29.3784 38.0126 29.3784 36.2069 29.7854 34.4718V34.4718Z" stroke="white" stroke-width="3.125"/>
</svg>
