<svg width="36" height="37" viewBox="0 0 36 37" fill="none" xmlns="http://www.w3.org/2000/svg">
<path d="M30.7045 32.9468C31.1439 33.3862 31.8562 33.3862 32.2955 32.9468C32.7348 32.5075 32.7348 31.7952 32.2955 31.3558L30.7045 32.9468ZM25.2072 27.4495L30.7045 32.9468L32.2955 31.3558L26.7982 25.8586L25.2072 27.4495Z" fill="white"/>
<path d="M4.97359 21.3229L6.06886 21.066L4.97359 21.3229ZM4.97359 13.1374L6.06886 13.3943L4.97359 13.1374ZM28.184 13.1374L29.2793 12.8805L28.184 13.1374ZM28.184 21.3229L27.0887 21.066L28.184 21.3229ZM20.6716 28.8354L20.4147 27.7401L20.6716 28.8354ZM12.486 28.8354L12.2291 29.9306L12.486 28.8354ZM12.486 5.62496L12.2291 4.52969L12.486 5.62496ZM20.6716 5.62496L20.9285 4.52969V4.52969L20.6716 5.62496ZM6.06886 21.066C5.47705 18.543 5.47705 15.9173 6.06886 13.3943L3.87832 12.8804C3.20723 15.7414 3.20723 18.7189 3.87832 21.5799L6.06886 21.066ZM27.0887 13.3943C27.6805 15.9173 27.6805 18.543 27.0887 21.066L29.2793 21.5799C29.9503 18.7189 29.9503 15.7414 29.2793 12.8805L27.0887 13.3943ZM20.4147 27.7401C17.8917 28.3319 15.2659 28.3319 12.7429 27.7401L12.2291 29.9306C15.0901 30.6017 18.0675 30.6017 20.9285 29.9306L20.4147 27.7401ZM12.7429 6.72023C15.2659 6.12841 17.8917 6.12841 20.4147 6.72023L20.9285 4.52969C18.0675 3.85859 15.0901 3.85859 12.2291 4.52969L12.7429 6.72023ZM12.7429 27.7401C9.43135 26.9633 6.84565 24.3776 6.06886 21.066L3.87832 21.5799C4.85026 25.7234 8.08556 28.9587 12.2291 29.9306L12.7429 27.7401ZM20.9285 29.9306C25.072 28.9587 28.3073 25.7234 29.2793 21.5799L27.0887 21.066C26.3119 24.3776 23.7262 26.9633 20.4147 27.7401L20.9285 29.9306ZM20.4147 6.72023C23.7262 7.49702 26.3119 10.0827 27.0887 13.3943L29.2793 12.8805C28.3073 8.73693 25.072 5.50163 20.9285 4.52969L20.4147 6.72023ZM12.2291 4.52969C8.08556 5.50163 4.85026 8.73692 3.87832 12.8804L6.06886 13.3943C6.84565 10.0827 9.43135 7.49702 12.7429 6.72023L12.2291 4.52969Z" fill="white"/>
<path d="M4.97359 21.3229L6.06886 21.066L4.97359 21.3229ZM6.06886 13.3943C6.21075 12.7894 5.83541 12.184 5.23051 12.0421C4.62561 11.9002 4.02021 12.2755 3.87832 12.8804L6.06886 13.3943ZM28.184 13.1374L29.2793 12.8805L28.184 13.1374ZM28.184 21.3229L27.0887 21.066L28.184 21.3229ZM20.6716 28.8354L20.4147 27.7401L20.6716 28.8354ZM12.486 28.8354L12.2291 29.9306L12.486 28.8354ZM12.2291 4.52969C11.6242 4.67158 11.2488 5.27697 11.3907 5.88187C11.5326 6.48678 12.138 6.86212 12.7429 6.72023L12.2291 4.52969ZM20.6716 5.62496L20.9285 4.52969V4.52969L20.6716 5.62496ZM6.06886 21.066C5.47705 18.543 5.47705 15.9173 6.06886 13.3943L3.87832 12.8804C3.20723 15.7414 3.20723 18.7189 3.87832 21.5799L6.06886 21.066ZM27.0887 13.3943C27.6805 15.9173 27.6805 18.543 27.0887 21.066L29.2793 21.5799C29.9503 18.7189 29.9503 15.7414 29.2793 12.8805L27.0887 13.3943ZM20.4147 27.7401C17.8917 28.3319 15.2659 28.3319 12.7429 27.7401L12.2291 29.9306C15.0901 30.6017 18.0675 30.6017 20.9285 29.9306L20.4147 27.7401ZM12.7429 6.72023C15.2659 6.12841 17.8917 6.12841 20.4147 6.72023L20.9285 4.52969C18.0675 3.85859 15.0901 3.85859 12.2291 4.52969L12.7429 6.72023ZM12.7429 27.7401C9.43135 26.9633 6.84565 24.3776 6.06886 21.066L3.87832 21.5799C4.85026 25.7234 8.08556 28.9587 12.2291 29.9306L12.7429 27.7401ZM20.9285 29.9306C25.072 28.9587 28.3073 25.7234 29.2793 21.5799L27.0887 21.066C26.3119 24.3776 23.7262 26.9633 20.4147 27.7401L20.9285 29.9306ZM20.4147 6.72023C23.7262 7.49702 26.3119 10.0827 27.0887 13.3943L29.2793 12.8805C28.3073 8.73693 25.072 5.50163 20.9285 4.52969L20.4147 6.72023Z" fill="white"/>
</svg>
