<svg width="50" height="51" viewBox="0 0 50 51" fill="none" xmlns="http://www.w3.org/2000/svg">
<path d="M11.4583 19.4014H7.29166" stroke="#ED9902" stroke-width="3.125" stroke-linecap="round"/>
<path d="M10.4167 31.9014L8.33334 31.9014" stroke="#ED9902" stroke-width="3.125" stroke-linecap="round"/>
<path d="M8.33333 25.6514H4.16667" stroke="#ED9902" stroke-width="3.125" stroke-linecap="round"/>
<path d="M25.0852 27.2449C25.9482 27.2449 26.6477 26.5453 26.6477 25.6824C26.6477 24.8194 25.9482 24.1199 25.0852 24.1199V27.2449ZM19.3083 27.2449H25.0852V24.1199H19.3083V27.2449Z" fill="#ED9902"/>
<path d="M24.6601 10.6692L25.3988 9.29233L24.6601 10.6692ZM42.7899 20.3948L42.0513 21.7717L42.7899 20.3948ZM42.7824 30.9541L43.5189 32.3322H43.5189L42.7824 30.9541ZM24.6622 40.6376L23.9258 39.2595L23.9258 39.2595L24.6622 40.6376ZM16.9516 33.5537L15.4547 33.1056H15.4547L16.9516 33.5537ZM16.9401 17.7428L15.4428 18.1894L16.9401 17.7428ZM23.9215 12.0461L42.0513 21.7717L43.5285 19.0179L25.3988 9.29233L23.9215 12.0461ZM42.046 29.5761L23.9258 39.2595L25.3987 42.0156L43.5189 32.3322L42.046 29.5761ZM18.4484 34.0019L20.6265 26.7271L17.6328 25.8307L15.4547 33.1056L18.4484 34.0019ZM20.6276 24.6393L18.4375 17.2962L15.4428 18.1894L17.633 25.5325L20.6276 24.6393ZM23.9258 39.2595C22.3984 40.0757 20.8088 39.7329 19.6686 38.6853C18.5173 37.6276 17.8844 35.8858 18.4484 34.0019L15.4547 33.1056C14.5294 36.1962 15.5693 39.1628 17.5544 40.9865C19.5505 42.8204 22.5609 43.5321 25.3987 42.0156L23.9258 39.2595ZM42.0513 21.7717C45.0135 23.3607 45.0097 27.9923 42.046 29.5761L43.5189 32.3322C48.684 29.5719 48.689 21.7862 43.5285 19.0179L42.0513 21.7717ZM25.3988 9.29233C22.5627 7.77094 19.5507 8.47829 17.5518 10.3098C15.564 12.1312 14.5205 15.097 15.4428 18.1894L18.4375 17.2962C17.8752 15.4111 18.5103 13.67 19.6629 12.6138C20.8045 11.5678 22.3948 11.2272 23.9215 12.0461L25.3988 9.29233ZM20.6265 26.7271C20.8304 26.0461 20.8308 25.3205 20.6276 24.6393L17.633 25.5325C17.662 25.6298 17.662 25.7335 17.6328 25.8307L20.6265 26.7271Z" fill="white"/>
</svg>
