<svg width="50" height="51" viewBox="0 0 50 51" fill="none" xmlns="http://www.w3.org/2000/svg">
<path d="M28.6495 10.4291C28.6495 8.68968 27.3783 7.21143 25.6585 6.95095C25.222 6.88484 24.778 6.88484 24.3415 6.95095C22.6217 7.21143 21.3505 8.68969 21.3505 10.4291V12.8888C20.368 13.1692 19.432 13.5601 18.5568 14.047L16.8168 12.307C15.5868 11.0771 13.6427 10.9307 12.2424 11.9626C11.887 12.2245 11.5731 12.5384 11.3112 12.8938C10.2793 14.2941 10.4257 16.2382 11.6556 17.4682L13.3957 19.2082C12.9087 20.0834 12.5179 21.0193 12.2374 22.0019H9.77771C8.03832 22.0019 6.56007 23.2731 6.29959 24.9929C6.23347 25.4294 6.23347 25.8734 6.29959 26.3099C6.56007 28.0296 8.03831 29.3008 9.77769 29.3008H12.2374C12.5179 30.2834 12.9087 31.2194 13.3957 32.0946L11.6556 33.8346C10.4257 35.0645 10.2793 37.0087 11.3112 38.4089C11.5731 38.7643 11.887 39.0783 12.2425 39.3402C13.6427 40.3721 15.5868 40.2257 16.8168 38.9957L18.5568 37.2557C19.432 37.7427 20.368 38.1335 21.3505 38.414V40.8737C21.3505 42.6131 22.6217 44.0913 24.3415 44.3518C24.778 44.4179 25.222 44.4179 25.6585 44.3518C27.3783 44.0913 28.6495 42.6131 28.6495 40.8737V38.414C29.632 38.1335 30.568 37.7427 31.4432 37.2557L33.1832 38.9958C34.4131 40.2257 36.3573 40.3721 37.7576 39.3402C38.113 39.0783 38.4269 38.7644 38.6888 38.4089C39.7207 37.0087 39.5743 35.0645 38.3444 33.8346L36.6044 32.0946C37.0913 31.2194 37.4822 30.2834 37.7626 29.3008H40.2223C41.9617 29.3008 43.4399 28.0296 43.7004 26.3099C43.7665 25.8734 43.7665 25.4294 43.7004 24.9929C43.4399 23.2731 41.9617 22.0019 40.2223 22.0019H37.7626C37.4822 21.0193 37.0913 20.0833 36.6044 19.2082L38.3444 17.4681C39.5743 16.2382 39.7207 14.2941 38.6888 12.8938C38.4269 12.5384 38.113 12.2245 37.7576 11.9626C36.3573 10.9307 34.4132 11.0771 33.1832 12.307L31.4432 14.047C30.568 13.5601 29.632 13.1692 28.6495 12.8888V10.4291Z" stroke="#ED9902" stroke-width="3.125" stroke-linecap="round" stroke-linejoin="round"/>
<path d="M37.7576 39.3402C36.3573 40.3721 34.4131 40.2257 33.1832 38.9958L31.4432 37.2557C30.568 37.7427 29.632 38.1335 28.6495 38.414V40.8737C28.6495 42.6131 27.3783 44.0913 25.6585 44.3518C25.222 44.4179 24.778 44.4179 24.3415 44.3518C22.6217 44.0913 21.3505 42.6131 21.3505 40.8737V38.414C20.368 38.1335 19.432 37.7427 18.5568 37.2557L16.8168 38.9957C15.5868 40.2257 13.6427 40.3721 12.2425 39.3402C11.887 39.0783 11.5731 38.7643 11.3112 38.4089C10.2793 37.0087 10.4257 35.0645 11.6556 33.8346L13.3957 32.0946C12.9087 31.2194 12.5179 30.2834 12.2374 29.3008H9.77769C8.03831 29.3008 6.56007 28.0296 6.29959 26.3099C6.23347 25.8734 6.23347 25.4294 6.29959 24.9929C6.56007 23.2731 8.03832 22.0019 9.77771 22.0019H12.2374C12.5179 21.0193 12.9087 20.0834 13.3957 19.2082L11.6556 17.4682C10.4257 16.2382 10.2793 14.2941 11.3112 12.8938C11.5731 12.5384 11.887 12.2245 12.2424 11.9626C13.6427 10.9307 15.5868 11.0771 16.8168 12.307L18.5568 14.047C19.432 13.5601 20.368 13.1692 21.3505 12.8888V10.4291C21.3505 8.68969 22.6217 7.21143 24.3415 6.95095C24.778 6.88484 25.222 6.88484 25.6585 6.95095C27.3783 7.21143 28.6495 8.68968 28.6495 10.4291V12.8888C29.632 13.1692 30.568 13.5601 31.4432 14.047L33.1832 12.307C34.4132 11.0771 36.3573 10.9307 37.7576 11.9626" stroke="white" stroke-width="3.125" stroke-linecap="round" stroke-linejoin="round"/>
<path d="M19.7917 25.6513C19.7917 22.7748 22.1235 20.443 25 20.443C27.8765 20.443 30.2083 22.7748 30.2083 25.6513C30.2083 28.5278 27.8765 30.8597 25 30.8597C22.1235 30.8597 19.7917 28.5278 19.7917 25.6513Z" stroke="#ED9902" stroke-width="3.125"/>
</svg>
