<svg width="50" height="51" viewBox="0 0 50 51" fill="none" xmlns="http://www.w3.org/2000/svg">
<path d="M33.0737 41.2501L33.4499 40.99C34.6269 40.1761 35.2156 39.769 35.7421 39.3327C38.603 36.9615 40.5246 33.6564 41.1641 30.0067C41.2818 29.335 41.343 28.6244 41.4653 27.2033L41.5286 26.4685C41.731 24.1163 41.7108 21.7503 41.4683 19.4019L41.3932 18.6751C40.9687 14.5653 38.4457 10.9633 34.7175 9.14434C28.5878 6.15371 21.4122 6.15371 15.2825 9.14434C11.5543 10.9633 9.03134 14.5653 8.60682 18.6751L8.53175 19.4019C8.28916 21.7503 8.26897 24.1163 8.47145 26.4685L8.5347 27.2033C8.65703 28.6244 8.7182 29.335 8.8359 30.0067C9.47544 33.6564 11.397 36.9615 14.2579 39.3327C14.7844 39.769 15.3731 40.1761 16.5501 40.99L16.9263 41.2501C18.5265 42.3567 19.3267 42.91 20.1286 43.2945C23.2069 44.7703 26.7931 44.7703 29.8714 43.2945C30.6733 42.91 31.4735 42.3567 33.0737 41.2501Z" stroke="#ED9902" stroke-width="3.125"/>
<path d="M41.4653 27.2033L41.5286 26.4685C41.731 24.1163 41.7108 21.7503 41.4683 19.4019L41.3932 18.6751C40.9687 14.5653 38.4457 10.9633 34.7175 9.14434C28.5878 6.15371 21.4122 6.15371 15.2825 9.14434C11.5543 10.9633 9.03134 14.5653 8.60682 18.6751L8.53175 19.4019C8.28916 21.7503 8.26897 24.1163 8.47145 26.4685L8.5347 27.2033C8.65703 28.6244 8.7182 29.335 8.8359 30.0067C9.47544 33.6564 11.397 36.9615 14.2579 39.3327C14.7844 39.769 15.3731 40.1761 16.5501 40.99L16.9263 41.2501C18.5265 42.3567 19.3267 42.91 20.1286 43.2945" stroke="white" stroke-width="3.125" stroke-linecap="round"/>
<path d="M19.2708 25.1305L23.4375 29.2972L30.7292 21.4847" stroke="#ED9902" stroke-width="3.125" stroke-linecap="round" stroke-linejoin="round"/>
</svg>
